<?xml version="1.0" encoding="utf-8"?>
<!-- Generator: Adobe Illustrator 26.3.1, SVG Export Plug-In . SVG Version: 6.00 Build 0)  -->
<svg version="1.1" id="Calque_1" xmlns="http://www.w3.org/2000/svg" xmlns:xlink="http://www.w3.org/1999/xlink" x="0px" y="0px"
	 viewBox="0 0 433 189" style="enable-background:new 0 0 433 189;" xml:space="preserve">
<style type="text/css">
	.st0{fill:#010101;}
</style>
<path class="st0" d="M312.5,123.6c-4.9-0.1-9.6,1.2-13.8,3.8l3.4,5.3c2.1-1.2,5-1.9,8.7-1.9c3.3,0.2,5,1.5,5,3.8v1
	c-2.1-1.1-4.5-1.8-6.9-1.9c-4.4,0-7.5,1.1-9.5,3.4c-1.9,2.1-3,4.9-3,7.8c-0.1,2.8,1,5.5,3.1,7.3s5.2,2.7,9.4,2.7
	c2.5-0.2,4.9-1,6.9-2.5v2.5h8.7v-18.8c0-4.1-1.1-7.3-3.3-9.4C319.2,124.7,316.3,123.6,312.5,123.6z M316,145.5
	c-0.8,1.6-2.8,2.5-5.9,2.5c-3.7-0.2-5.7-1.6-5.9-4c0.2-2.5,2.2-4,5.9-4.4c3.1,0,5.1,0.8,5.9,2.4V145.5z"/>
<path class="st0" d="M184.9,123.6c-2.5,0.1-4.9,1-6.9,2.5v-2.5l-8.7,1V168h8.7v-15.7c1.5,1.5,3.8,2.3,6.9,2.6
	c4.8,0,8.6-1.6,11.4-4.7c5.7-6.2,5.7-15.7,0-21.8C193.5,125.2,189.7,123.6,184.9,123.6z M184.6,147.6c-4-0.6-6.2-2.7-6.6-6.2v-5.1
	c0.4-3.1,2.6-5,6.6-5.6c5.4,0.2,8.2,3.3,8.5,9.1C192.4,144.6,189.6,147.2,184.6,147.6L184.6,147.6z"/>
<path class="st0" d="M407.9,126.8c-2.2-2.1-5.2-3.1-8.9-3.1c-4.9-0.1-9.6,1.2-13.8,3.8l3.4,5.3c2.1-1.2,5-1.9,8.8-1.9
	c3.3,0.2,5,1.5,5,3.8v1c-2.1-1.1-4.5-1.8-6.9-1.9c-4.4,0-7.6,1.1-9.5,3.4c-1.9,2.1-3,4.9-3,7.8c-0.1,2.8,1,5.5,3.1,7.3
	s5.2,2.7,9.4,2.7c2.5-0.2,4.8-1,6.9-2.5v2.5h8.7v-18.8C411.1,132,410.1,128.9,407.9,126.8z M402.4,145.5c-0.8,1.6-2.8,2.5-5.9,2.5
	c-3.7-0.2-5.7-1.6-5.9-4c0.2-2.5,2.2-4,5.9-4.4c3.1,0,5.1,0.8,5.9,2.4V145.5z"/>
<path class="st0" d="M372.6,111.7c-1.3-0.1-2.5,0.4-3.4,1.3c-0.8,0.8-1.2,2-1.2,3.1c0,1.2,0.4,2.3,1.2,3.1c0.9,0.9,2.2,1.3,3.5,1.2
	c1.3,0.1,2.5-0.4,3.4-1.2c0.8-0.8,1.3-1.9,1.2-3.1c0-1.2-0.4-2.3-1.2-3.1C375.2,112.1,373.9,111.6,372.6,111.7z"/>
<rect x="368.3" y="123.6" class="st0" width="8.7" height="31.3"/>
<path class="st0" d="M348.8,123.6c-2.8,0-5.4,0.9-7.5,2.8v-2.8l-8.8,1v30.3h8.8V135c1.3-2.5,2.8-3.9,4.6-4c1.8-0.1,3.5,0.6,4.8,1.8
	c1.1,1.4,1.7,3.1,1.5,4.8v17.2h8.7v-19.3c0-3.1-1.1-6-3.1-8.3C355.7,124.8,352.7,123.6,348.8,123.6z"/>
<path class="st0" d="M81.5,127.1v-3.5l-8.7,1v30.3h8.7v-19.2c1.4-2.9,3.2-4.5,5.4-4.6c1.6,0,3.1,0.5,4.3,1.5l1.4-8.6
	c-1-0.2-1.9-0.2-2.9-0.2C86.6,123.7,83.6,124.9,81.5,127.1z"/>
<path class="st0" d="M220.9,123.3c-8.6,0.2-15.5,7.3-15.3,15.9c0.2,8.6,7.3,15.5,15.9,15.3c8.6-0.2,15.5-7.3,15.3-15.9
	c-0.1-4-1.7-7.9-4.6-10.7C229.3,124.9,225.2,123.2,220.9,123.3z M226.7,145.2c-1.5,1.6-3.6,2.5-5.8,2.4c-2.2,0.1-4.3-0.8-5.8-2.4
	c-2.9-3.4-2.9-8.5,0-11.9c3.1-3.2,8.3-3.2,11.5-0.1l0.1,0.1C229.6,136.7,229.6,141.8,226.7,145.2z"/>
<path class="st0" d="M112.4,123.3c-8.8,0.1-15.8,7.3-15.7,16.1c0.1,8.8,7.3,15.8,16.1,15.7c4.1-0.1,8-1.7,11-4.6
	c6.1-6.3,6.1-16.4,0-22.7C120.8,124.9,116.7,123.2,112.4,123.3z M118.2,145.2c-3.1,3.2-8.2,3.2-11.4,0.1l-0.1-0.1
	c-2.9-3.4-2.9-8.5,0-11.9c3.1-3.2,8.3-3.2,11.5-0.1l0.1,0.1C121.2,136.7,121.2,141.8,118.2,145.2z"/>
<path class="st0" d="M47.5,117.3c4-0.1,7.9,1.3,11,3.8l6.2-6.8c-4.7-4.2-10.9-6.4-17.2-6.3c-12.9,0-23.4,10.5-23.4,23.4
	s10.5,23.4,23.4,23.4l0,0c6.3,0.1,12.4-2.1,17.2-6.2v-21.9H49.1v8.8h6.2v8c-1.8,1.3-4.4,2-7.8,2c-3.8,0.2-7.5-1.2-10.2-3.8
	c-2.6-2.6-3.9-6-3.9-10.4c-0.1-3.7,1.2-7.3,3.8-10C40,118.7,43.7,117.2,47.5,117.3z"/>
<path class="st0" d="M278.2,123.6c-4.6,0-8,1.2-10.3,3.6c-2.1-2.4-5.1-3.6-9-3.6c-2.8-0.1-5.5,0.9-7.5,2.8v-2.8l-8.8,1v30.3h8.8v-20
	c1.4-2.4,3-3.7,4.9-3.8c1.7-0.1,3.4,0.5,4.6,1.8c1,1.4,1.5,3.1,1.4,4.8v17.2h8.7v-18.4c0-0.7,0.1-1.3,0.2-2c1.3-2.2,2.7-3.3,4.5-3.4
	c1.7-0.1,3.4,0.5,4.6,1.8c1,1.4,1.5,3.1,1.4,4.8v17.2h8.7v-19.3c0-3.1-1.1-6-3.1-8.3C285.3,124.8,282.2,123.6,278.2,123.6z"/>
<path class="st0" d="M153.1,143.8c-1.3,2.3-2.8,3.5-4.7,3.6c-1.8,0.1-3.5-0.6-4.7-1.8c-1.1-1.4-1.7-3.1-1.6-4.8v-17.2h-8.8V143
	c0,3.1,1.1,6,3.1,8.3c2.1,2.4,5.1,3.6,9,3.6c2.8,0,5.5-1,7.5-2.8v2.8h8.7v-31.3h-8.7L153.1,143.8z"/>
<path class="st0" d="M217,96.9c21.4-0.1,38.6-17.5,38.5-38.8c-0.1-21.4-17.5-38.6-38.8-38.5c-21.4,0.1-38.6,17.5-38.5,38.8
	c0,10.2,4.1,20,11.3,27.2C196.8,92.8,206.7,96.9,217,96.9z M219.2,90.3c-0.7,0.1-1.5,0.1-2.2,0.1c-1,0-2-0.1-3.1-0.2
	c-3.3-5.1-5.8-10.7-7.3-16.6H223c0.6,1.4,1.5,2.6,2.8,3.5C224.2,81.7,222,86.2,219.2,90.3L219.2,90.3z M228.1,88.4
	c1.7-3.2,3.2-6.5,4.3-9.9c2.7-0.5,4.9-2.4,5.9-4.9h7.2C241.5,80.4,235.4,85.6,228.1,88.4L228.1,88.4z M249.2,58c0,3-0.4,6-1.2,8.9
	h-10c-0.6-1.2-1.5-2.3-2.6-3.2c0.2-2.1,0.3-4.1,0.3-6.1c0-2.9-0.2-5.7-0.5-8.6H248C248.9,52,249.3,55,249.2,58L249.2,58z
	 M245.3,42.5H234c-1.2-5.1-3-10-5.4-14.6C235.7,30.7,241.6,35.9,245.3,42.5L245.3,42.5z M229.2,57.7c0,1.6-0.1,3.2-0.2,4.7
	c-2.5,0.5-4.7,2.2-5.8,4.6h-17.9c-0.4-2.8-0.6-5.6-0.6-8.4c0-1.8,0.1-3.5,0.3-5.3c2.4-0.5,4.4-2,5.6-4.1h18.1
	C229,51.9,229.2,54.8,229.2,57.7z M214.6,25.9c0.8-0.1,1.6-0.1,2.4-0.1c0.9,0,1.9,0,2.8,0.1c3.3,5.1,5.8,10.7,7.3,16.6H211
	c-0.6-1.6-1.6-3-2.9-4C209.8,34.1,212,29.8,214.6,25.9z M205.8,27.8c-1.6,3-2.9,6.1-4.1,9.3c-2.9,0.6-5.2,2.6-6.1,5.4h-6.8
	C192.6,35.7,198.6,30.5,205.8,27.8z M184.8,58c0-3,0.4-6,1.3-8.9h10.1c0.6,1,1.4,2,2.3,2.7c-0.2,2.2-0.4,4.5-0.4,6.7
	c0,2.8,0.2,5.6,0.5,8.4H186C185.2,64.1,184.8,61.1,184.8,58L184.8,58z M199.8,73.5c1.2,5.1,3,10,5.4,14.6c-7-2.8-12.9-7.9-16.5-14.6
	H199.8z"/>
</svg>
