<?xml version="1.0" encoding="utf-8"?>
<!-- Generator: Adobe Illustrator 26.3.1, SVG Export Plug-In . SVG Version: 6.00 Build 0)  -->
<svg version="1.1" id="Calque_1" xmlns="http://www.w3.org/2000/svg" xmlns:xlink="http://www.w3.org/1999/xlink" x="0px" y="0px"
	 viewBox="0 0 90.7 90.7" style="enable-background:new 0 0 90.7 90.7;" xml:space="preserve">
<style type="text/css">
	.st0{fill:#010101;}
</style>
<path class="st0" d="M45.9,83.8C67.3,83.7,84.5,66.3,84.4,45C84.3,23.6,66.9,6.4,45.6,6.5C24.2,6.6,7,24,7.1,45.3
	c0,10.2,4.1,20,11.3,27.2C25.7,79.7,35.6,83.8,45.9,83.8z M48.1,77.2c-0.7,0.1-1.5,0.1-2.2,0.1c-1,0-2-0.1-3.1-0.2
	C39.5,72,37,66.4,35.5,60.5h16.4c0.6,1.4,1.5,2.6,2.8,3.5C53.1,68.6,50.9,73.1,48.1,77.2L48.1,77.2z M57,75.3
	c1.7-3.2,3.2-6.5,4.3-9.9c2.7-0.5,4.9-2.4,5.9-4.9h7.2C70.4,67.3,64.3,72.5,57,75.3L57,75.3z M78.1,44.9c0,3-0.4,6-1.2,8.9h-10
	c-0.6-1.2-1.5-2.3-2.6-3.2c0.2-2.1,0.3-4.1,0.3-6.1c0-2.9-0.2-5.7-0.5-8.6h12.8C77.8,38.9,78.2,41.9,78.1,44.9L78.1,44.9z
	 M74.2,29.4H62.9c-1.2-5.1-3-10-5.4-14.6C64.6,17.6,70.5,22.8,74.2,29.4L74.2,29.4z M58.1,44.6c0,1.6-0.1,3.2-0.2,4.7
	c-2.5,0.5-4.7,2.2-5.8,4.6H34.2c-0.4-2.8-0.6-5.6-0.6-8.4c0-1.8,0.1-3.5,0.3-5.3c2.4-0.5,4.4-2,5.6-4.1h18.1
	C57.9,38.8,58.1,41.7,58.1,44.6z M43.5,12.8c0.8-0.1,1.6-0.1,2.4-0.1c0.9,0,1.9,0,2.8,0.1c3.3,5.1,5.8,10.7,7.3,16.6H39.9
	c-0.6-1.6-1.6-3-2.9-4C38.7,21,40.9,16.7,43.5,12.8z M34.7,14.7c-1.6,3-2.9,6.1-4.1,9.3c-2.9,0.6-5.2,2.6-6.1,5.4h-6.8
	C21.5,22.6,27.5,17.4,34.7,14.7z M13.7,44.9c0-3,0.4-6,1.3-8.9h10.1c0.6,1,1.4,2,2.3,2.7c-0.2,2.2-0.4,4.5-0.4,6.7
	c0,2.8,0.2,5.6,0.5,8.4H14.9C14.1,51,13.7,48,13.7,44.9L13.7,44.9z M28.7,60.4c1.2,5.1,3,10,5.4,14.6c-7-2.8-12.9-7.9-16.5-14.6
	H28.7z"/>
</svg>
