<?xml version="1.0" encoding="utf-8"?>
<!-- Generator: Adobe Illustrator 26.3.1, SVG Export Plug-In . SVG Version: 6.00 Build 0)  -->
<svg version="1.1" id="Calque_1" xmlns="http://www.w3.org/2000/svg" xmlns:xlink="http://www.w3.org/1999/xlink" x="0px" y="0px"
	 viewBox="0 0 433 94.5" style="enable-background:new 0 0 433 94.5;" xml:space="preserve">
<style type="text/css">
	.st0{fill:#010101;}
</style>
<g>
	<path class="st0" d="M311.4,32.9c-4.9-0.1-9.6,1.2-13.8,3.8L301,42c2.1-1.2,5-1.9,8.7-1.9c3.3,0.2,5,1.5,5,3.8v1
		c-2.1-1.1-4.5-1.8-6.9-1.9c-4.4,0-7.5,1.1-9.5,3.4c-1.9,2.1-3,4.9-3,7.8c-0.1,2.8,1,5.5,3.1,7.3s5.2,2.7,9.4,2.7
		c2.5-0.2,4.9-1,6.9-2.5v2.5h8.7V45.4c0-4.1-1.1-7.3-3.3-9.4C318.1,34,315.2,32.9,311.4,32.9z M314.9,54.8c-0.8,1.6-2.8,2.5-5.9,2.5
		c-3.7-0.2-5.7-1.6-5.9-4c0.2-2.5,2.2-4,5.9-4.4c3.1,0,5.1,0.8,5.9,2.4V54.8z"/>
	<path class="st0" d="M183.8,32.9c-2.5,0.1-4.9,1-6.9,2.5v-2.5l-8.7,1v43.4h8.7V61.6c1.5,1.5,3.8,2.3,6.9,2.6
		c4.8,0,8.6-1.6,11.4-4.7c5.7-6.2,5.7-15.7,0-21.8C192.4,34.5,188.6,32.9,183.8,32.9z M183.5,56.9c-4-0.6-6.2-2.7-6.6-6.2v-5.1
		c0.4-3.1,2.6-5,6.6-5.6c5.4,0.2,8.2,3.3,8.5,9.1C191.3,53.9,188.5,56.5,183.5,56.9L183.5,56.9z"/>
	<path class="st0" d="M406.8,36.1c-2.2-2.1-5.2-3.1-8.9-3.1c-4.9-0.1-9.6,1.2-13.8,3.8l3.4,5.3c2.1-1.2,5-1.9,8.8-1.9
		c3.3,0.2,5,1.5,5,3.8v1c-2.1-1.1-4.5-1.8-6.9-1.9c-4.4,0-7.6,1.1-9.5,3.4c-1.9,2.1-3,4.9-3,7.8c-0.1,2.8,1,5.5,3.1,7.3
		s5.2,2.7,9.4,2.7c2.5-0.2,4.8-1,6.9-2.5v2.5h8.7V45.5C410,41.3,409,38.2,406.8,36.1z M401.3,54.8c-0.8,1.6-2.8,2.5-5.9,2.5
		c-3.7-0.2-5.7-1.6-5.9-4c0.2-2.5,2.2-4,5.9-4.4c3.1,0,5.1,0.8,5.9,2.4V54.8z"/>
	<path class="st0" d="M371.5,21c-1.3-0.1-2.5,0.4-3.4,1.3c-0.8,0.8-1.2,2-1.2,3.1c0,1.2,0.4,2.3,1.2,3.1c0.9,0.9,2.2,1.3,3.5,1.2
		c1.3,0.1,2.5-0.4,3.4-1.2c0.8-0.8,1.3-1.9,1.2-3.1c0-1.2-0.4-2.3-1.2-3.1C374.1,21.4,372.8,20.9,371.5,21z"/>
	<rect x="367.2" y="32.9" class="st0" width="8.7" height="31.3"/>
	<path class="st0" d="M347.7,32.9c-2.8,0-5.4,0.9-7.5,2.8v-2.8l-8.8,1v30.3h8.8V44.3c1.3-2.5,2.8-3.9,4.6-4c1.8-0.1,3.5,0.6,4.8,1.8
		c1.1,1.4,1.7,3.1,1.5,4.8v17.2h8.7V44.8c0-3.1-1.1-6-3.1-8.3C354.6,34.1,351.6,32.9,347.7,32.9z"/>
	<path class="st0" d="M80.4,36.4v-3.5l-8.7,1v30.3h8.7V45c1.4-2.9,3.2-4.5,5.4-4.6c1.6,0,3.1,0.5,4.3,1.5l1.4-8.6
		c-1-0.2-1.9-0.2-2.9-0.2C85.5,33,82.5,34.2,80.4,36.4z"/>
	<path class="st0" d="M219.8,32.6c-8.6,0.2-15.5,7.3-15.3,15.9c0.2,8.6,7.3,15.5,15.9,15.3c8.6-0.2,15.5-7.3,15.3-15.9
		c-0.1-4-1.7-7.9-4.6-10.7C228.2,34.2,224.1,32.5,219.8,32.6z M225.6,54.5c-1.5,1.6-3.6,2.5-5.8,2.4c-2.2,0.1-4.3-0.8-5.8-2.4
		c-2.9-3.4-2.9-8.5,0-11.9c3.1-3.2,8.3-3.2,11.5-0.1l0.1,0.1C228.5,46,228.5,51.1,225.6,54.5z"/>
	<path class="st0" d="M111.3,32.6c-8.8,0.1-15.8,7.3-15.7,16.1c0.1,8.8,7.3,15.8,16.1,15.7c4.1-0.1,8-1.7,11-4.6
		c6.1-6.3,6.1-16.4,0-22.7C119.7,34.2,115.6,32.5,111.3,32.6z M117.1,54.5c-3.1,3.2-8.2,3.2-11.4,0.1l-0.1-0.1
		c-2.9-3.4-2.9-8.5,0-11.9c3.1-3.2,8.3-3.2,11.5-0.1l0.1,0.1C120.1,46,120.1,51.1,117.1,54.5z"/>
	<path class="st0" d="M46.4,26.6c4-0.1,7.9,1.3,11,3.8l6.2-6.8c-4.7-4.2-10.9-6.4-17.2-6.3C33.5,17.3,23,27.8,23,40.7
		s10.5,23.4,23.4,23.4l0,0c6.3,0.1,12.4-2.1,17.2-6.2V36H48v8.8h6.2v8c-1.8,1.3-4.4,2-7.8,2c-3.8,0.2-7.5-1.2-10.2-3.8
		c-2.6-2.6-3.9-6-3.9-10.4c-0.1-3.7,1.2-7.3,3.8-10C38.9,28,42.6,26.5,46.4,26.6z"/>
	<path class="st0" d="M277.1,32.9c-4.6,0-8,1.2-10.3,3.6c-2.1-2.4-5.1-3.6-9-3.6c-2.8-0.1-5.5,0.9-7.5,2.8v-2.8l-8.8,1v30.3h8.8v-20
		c1.4-2.4,3-3.7,4.9-3.8c1.7-0.1,3.4,0.5,4.6,1.8c1,1.4,1.5,3.1,1.4,4.8v17.2h8.7V45.8c0-0.7,0.1-1.3,0.2-2c1.3-2.2,2.7-3.3,4.5-3.4
		c1.7-0.1,3.4,0.5,4.6,1.8c1,1.4,1.5,3.1,1.4,4.8v17.2h8.7V44.9c0-3.1-1.1-6-3.1-8.3C284.2,34.1,281.1,32.9,277.1,32.9z"/>
	<path class="st0" d="M152,53.1c-1.3,2.3-2.8,3.5-4.7,3.6c-1.8,0.1-3.5-0.6-4.7-1.8c-1.1-1.4-1.7-3.1-1.6-4.8V32.9h-8.8v19.4
		c0,3.1,1.1,6,3.1,8.3c2.1,2.4,5.1,3.6,9,3.6c2.8,0,5.5-1,7.5-2.8v2.8h8.7V32.9h-8.7L152,53.1z"/>
</g>
</svg>
